<mxfile host="65bd71144e">
    <diagram id="4LpxzC90ggyCiChHXxnQ" name="Page-1">
        <mxGraphModel dx="442" dy="252" grid="1" gridSize="10" guides="1" tooltips="1" connect="1" arrows="1" fold="1" page="1" pageScale="1" pageWidth="850" pageHeight="1100" math="0" shadow="0">
            <root>
                <mxCell id="0"/>
                <mxCell id="1" parent="0"/>
                <mxCell id="2" value="" style="rounded=1;whiteSpace=wrap;html=1;strokeWidth=15;glass=0;shadow=0;strokeOpacity=100;fillOpacity=0;fillColor=#FFFFFF;" vertex="1" parent="1">
                    <mxGeometry x="360" y="360" width="160" height="90" as="geometry"/>
                </mxCell>
                <mxCell id="3" value="" style="rounded=1;whiteSpace=wrap;html=1;shadow=0;glass=0;sketch=0;strokeWidth=1;fillColor=#000000;strokeColor=default;" vertex="1" parent="1">
                    <mxGeometry x="410" y="470" width="60" height="10" as="geometry"/>
                </mxCell>
                <mxCell id="4" value="" style="rounded=0;whiteSpace=wrap;html=1;shadow=0;glass=0;sketch=0;strokeColor=default;strokeWidth=1;fillColor=#000000;" vertex="1" parent="1">
                    <mxGeometry x="430" y="450" width="20" height="20" as="geometry"/>
                </mxCell>
            </root>
        </mxGraphModel>
    </diagram>
</mxfile>